<?xml version="1.0" standalone="no"?>
<!DOCTYPE svg PUBLIC "-//W3C//DTD SVG 20010904//EN"
 "http://www.w3.org/TR/2001/REC-SVG-20010904/DTD/svg10.dtd">
<svg version="1.0" xmlns="http://www.w3.org/2000/svg"
 width="409.600000pt" height="409.600000pt" viewBox="0 0 409.600000 409.600000"
 preserveAspectRatio="xMidYMid meet">
<metadata>
Created by potrace 1.13, written by Peter Selinger 2001-2015
</metadata>
<g transform="translate(0.000000,409.600000) scale(0.080000,-0.080000)"
fill="#000000" stroke="none">
<path d="M3901 5077 c-96 -24 -117 -65 -130 -242 -15 -210 -46 -308 -122 -390
-77 -83 -171 -117 -435 -155 -321 -47 -458 -101 -589 -234 -63 -63 -90 -100
-122 -166 -64 -130 -103 -313 -103 -477 l0 -63 -967 -2 -968 -3 -66 -22 c-166
-57 -306 -196 -372 -369 l-22 -59 0 -925 0 -925 22 -59 c66 -174 195 -303 369
-369 l59 -22 2105 0 2105 0 59 22 c174 66 303 195 369 369 l22 59 0 925 0 925
-22 59 c-66 173 -206 312 -372 369 l-66 22 -968 3 -968 2 6 78 c20 266 82 395
223 466 44 23 164 51 297 71 246 36 346 61 450 111 229 111 355 317 395 644
16 137 13 227 -11 276 -32 67 -105 100 -178 81z m-2921 -2517 l0 -190 -190 0
-190 0 0 190 0 190 190 0 190 0 0 -190z m590 0 l0 -190 -190 0 -190 0 0 190 0
190 190 0 190 0 0 -190z m590 0 l0 -190 -190 0 -190 0 0 190 0 190 190 0 190
0 0 -190z m590 0 l0 -190 -190 0 -190 0 0 190 0 190 190 0 190 0 0 -190z m590
0 l0 -190 -190 0 -190 0 0 190 0 190 190 0 190 0 0 -190z m590 0 l0 -190 -190
0 -190 0 0 190 0 190 190 0 190 0 0 -190z m590 0 l0 -190 -190 0 -190 0 0 190
0 190 190 0 190 0 0 -190z m-3340 -590 l0 -190 -195 0 -195 0 0 190 0 190 195
0 195 0 0 -190z m590 0 l0 -190 -195 0 -195 0 0 190 0 190 195 0 195 0 0 -190z
m590 0 l0 -190 -195 0 -195 0 0 190 0 190 195 0 195 0 0 -190z m590 0 l0 -190
-195 0 -195 0 0 190 0 190 195 0 195 0 0 -190z m590 0 l0 -190 -190 0 -190 0
0 190 0 190 190 0 190 0 0 -190z m590 0 l0 -190 -190 0 -190 0 0 190 0 190
190 0 190 0 0 -190z m-3150 -590 l0 -190 -190 0 -190 0 0 190 0 190 190 0 190
0 0 -190z m2950 0 l0 -190 -1370 0 -1370 0 0 190 0 190 1370 0 1370 0 0 -190z
m590 0 l0 -190 -190 0 -190 0 0 190 0 190 190 0 190 0 0 -190z"/>
</g>
</svg>
